<svg xmlns="http://www.w3.org/2000/svg" width="148.82mm" height="105.86mm" viewBox="0 0 421.85 300.06">
  <defs>
    <style>
      .cls-1 {
        fill: #b2b2b2;
        stroke: #1d71b8;
      }

      .cls-1, .cls-3, .cls-4, .cls-5, .cls-6, .cls-7 {
        stroke-miterlimit: 10;
      }

      .cls-1, .cls-2 {
        opacity: 0.4;
      }

      .cls-2 {
        fill: #9d9d9c;
      }

      .cls-3, .cls-5, .cls-6 {
        fill: #fff;
      }

      .cls-3, .cls-4, .cls-5, .cls-6, .cls-7 {
        stroke: #1d1d1b;
      }

      .cls-4 {
        fill: none;
      }

      .cls-5 {
        stroke-width: 0.5px;
      }

      .cls-6 {
        stroke-width: 3px;
      }

      .cls-7, .cls-8 {
        fill: #1d1d1b;
      }

      .cls-8 {
        font-size: 12px;
        font-family: Consolas;
      }
    </style>
  </defs>
  <g id="Capa_2" data-name="Capa 2">
    <g id="Capa_1-2" data-name="Capa 1">
      <rect id="fondo_usuario_ve" class="cls-1" x="0.5" y="0.5" width="420.85" height="299.06" rx="8.3"/>
      <g id="usuario_ve">
        <rect id="fondo_usuario_ve-2" data-name="fondo_usuario_ve" class="cls-2" x="19.23" y="182.21" width="385.72" height="104.16" rx="8.3"/>
        <g id="receptor">
          <rect class="cls-3" x="361.82" y="195.38" width="29.79" height="52.92" rx="5.28"/>
          <circle class="cls-3" cx="376.72" cy="244.39" r="2.37"/>
          <rect class="cls-4" x="363.53" y="197.34" width="26.37" height="43.52" rx="5.28"/>
        </g>
        <g id="emisor">
          <rect class="cls-3" x="34.58" y="195.38" width="29.79" height="52.92" rx="5.28"/>
          <circle class="cls-3" cx="49.48" cy="244.39" r="2.37"/>
          <rect class="cls-4" x="36.29" y="197.34" width="26.37" height="43.52" rx="5.28"/>
        </g>
        <g id="documents">
          <rect class="cls-5" x="193.36" y="234.59" width="29" height="43.5"/>
          <rect class="cls-5" x="194.87" y="236.1" width="29" height="43.5"/>
          <rect class="cls-5" x="196.38" y="237.62" width="29" height="43.5"/>
        </g>
        <g id="flecha">
          <line class="cls-4" x1="77.64" y1="222.65" x2="341.1" y2="222.65"/>
          <line class="cls-4" x1="330.81" y1="211.3" x2="342.15" y2="222.64"/>
          <line class="cls-4" x1="330.81" y1="233.87" x2="342.15" y2="222.53"/>
        </g>
      </g>
      <g id="correo">
        <rect class="cls-6" x="250.44" y="12.74" width="25.95" height="19.92" rx="0.64"/>
        <path class="cls-6" d="M263.14,22.82l-12.7-8.9a1.18,1.18,0,0,1,1.18-1.18h23.59a1.18,1.18,0,0,1,1.18,1.18Z"/>
      </g>
      <g>
        <rect class="cls-4" x="199.8" y="88.53" width="24.96" height="40.08" rx="0.89"/>
        <g>
          <rect class="cls-4" x="201.34" y="101.47" width="21.87" height="4.59" rx="2.29"/>
          <g>
            <circle class="cls-7" cx="206.8" cy="103.77" r="0.42"/>
            <circle class="cls-7" cx="212.89" cy="103.77" r="0.42"/>
            <circle class="cls-7" cx="218.98" cy="103.77" r="0.42"/>
          </g>
        </g>
        <g>
          <rect class="cls-4" x="201.34" y="107.71" width="21.87" height="4.59" rx="2.29"/>
          <g>
            <circle class="cls-7" cx="206.8" cy="110" r="0.42"/>
            <circle class="cls-7" cx="212.89" cy="110" r="0.42"/>
            <circle class="cls-7" cx="218.98" cy="110" r="0.42"/>
          </g>
        </g>
        <g>
          <rect class="cls-4" x="201.34" y="113.95" width="21.87" height="4.59" rx="2.29"/>
          <g>
            <circle class="cls-7" cx="206.8" cy="116.24" r="0.42"/>
            <circle class="cls-7" cx="212.89" cy="116.24" r="0.42"/>
            <circle class="cls-7" cx="218.98" cy="116.24" r="0.42"/>
          </g>
        </g>
      </g>
      <g>
        <path class="cls-4" d="M51.79,180.52A162.3,162.3,0,0,1,191.43,103.6"/>
        <g>
          <line class="cls-4" x1="185.43" y1="95.8" x2="191.42" y2="103.93"/>
          <line class="cls-4" x1="183.31" y1="109.85" x2="191.43" y2="103.86"/>
        </g>
      </g>
      <g>
        <path class="cls-4" d="M65.49,180a142.57,142.57,0,0,1,126-64.83"/>
        <g>
          <line class="cls-4" x1="75.11" y1="177.48" x2="65.39" y2="180.21"/>
          <line class="cls-4" x1="62.72" y1="170.52" x2="65.45" y2="180.24"/>
        </g>
      </g>
      <g>
        <ellipse class="cls-3" cx="160.06" cy="33.03" rx="16.38" ry="4.36"/>
        <path class="cls-3" d="M143.69,33.05V26.23h32.75v6.82"/>
        <ellipse class="cls-3" cx="160.06" cy="25.96" rx="16.38" ry="4.36"/>
        <path class="cls-3" d="M143.69,26V19.16h32.75V26"/>
        <ellipse class="cls-3" cx="160.06" cy="19.14" rx="16.38" ry="4.36"/>
        <path class="cls-3" d="M143.69,19.16V12.34h32.75v6.82"/>
        <ellipse class="cls-3" cx="160.06" cy="12.08" rx="16.38" ry="4.36"/>
      </g>
      <g>
        <g>
          <g>
            <line class="cls-4" x1="156.34" y1="52.38" x2="157.67" y2="42.38"/>
            <line class="cls-4" x1="167.62" y1="43.75" x2="157.61" y2="42.42"/>
          </g>
          <line class="cls-4" x1="158.27" y1="42.88" x2="193.87" y2="86.08"/>
        </g>
        <g>
          <g>
            <line class="cls-4" x1="207.21" y1="73.92" x2="205.9" y2="83.93"/>
            <line class="cls-4" x1="195.94" y1="82.57" x2="205.95" y2="83.89"/>
          </g>
          <line class="cls-4" x1="205.29" y1="83.42" x2="169.64" y2="40.26"/>
        </g>
      </g>
      <g>
        <g>
          <g>
            <line class="cls-4" x1="244.25" y1="82.69" x2="234.16" y2="82.72"/>
            <line class="cls-4" x1="234.18" y1="72.67" x2="234.21" y2="82.77"/>
          </g>
          <line class="cls-4" x1="234.58" y1="82.05" x2="272.62" y2="40.98"/>
        </g>
        <g>
          <g>
            <line class="cls-4" x1="246.84" y1="43.44" x2="256.93" y2="43.41"/>
            <line class="cls-4" x1="256.92" y1="53.45" x2="256.88" y2="43.36"/>
          </g>
          <line class="cls-4" x1="256.51" y1="44.08" x2="218.52" y2="85.19"/>
        </g>
      </g>
      <g>
        <path class="cls-4" d="M231,103.24a162.34,162.34,0,0,1,139.37,77.41"/>
        <g>
          <line class="cls-4" x1="373.74" y1="171.42" x2="370.04" y2="180.81"/>
          <line class="cls-4" x1="360.71" y1="177.09" x2="370.11" y2="180.78"/>
        </g>
      </g>
      <g>
        <path class="cls-4" d="M231.64,114.59A152.57,152.57,0,0,1,352,179.68"/>
        <g>
          <line class="cls-4" x1="238.92" y1="121.37" x2="231.44" y2="114.59"/>
          <line class="cls-4" x1="238.23" y1="107.18" x2="231.45" y2="114.66"/>
        </g>
      </g>
      <text class="cls-8" transform="translate(6.45 14.78)">Devs</text>
      <text class="cls-8" transform="translate(27.57 279.6)">Users</text>
    </g>
  </g>
</svg>
